<svg xmlns="http://www.w3.org/2000/svg" viewBox="0 0 320 312" role="img" aria-labelledby="title">
<title id="title">Academy logo</title>
<g fill="#1f76b4" fill-rule="evenodd">
<path d="M 9.50 209.00 L 10.00 207.50 L 14.00 207.50 L 20.00 209.50 L 29.00 209.50 L 30.00 210.50 L 48.00 210.50 L 49.00 209.50 L 58.00 209.50 L 59.00 208.50 L 69.00 207.50 L 97.00 198.50 L 99.00 196.50 L 101.00 196.50 L 119.00 187.50 L 135.00 177.50 L 156.00 161.50 L 183.50 135.00 L 209.50 102.00 L 229.50 69.00 L 229.00 64.50 L 205.00 55.50 L 204.50 54.00 L 261.00 23.50 L 270.00 17.50 L 276.00 15.50 L 287.00 8.50 L 297.00 3.50 L 300.50 4.00 L 297.50 44.00 L 296.50 45.00 L 296.50 56.00 L 295.50 57.00 L 295.50 64.00 L 294.50 65.00 L 294.50 78.00 L 292.50 86.00 L 292.50 98.00 L 291.50 99.00 L 291.50 108.00 L 290.00 113.50 L 270.00 94.50 L 268.00 94.50 L 261.50 105.00 L 238.50 134.00 L 206.00 165.50 L 192.00 176.50 L 171.00 190.50 L 157.00 198.50 L 155.00 198.50 L 132.00 209.50 L 111.00 216.50 L 107.00 216.50 L 103.00 218.50 L 99.00 218.50 L 93.00 220.50 L 77.00 221.50 L 76.00 222.50 L 58.00 222.50 L 57.00 221.50 L 47.00 221.50 L 46.00 220.50 L 32.00 218.50 L 20.00 214.50 Z"/>
<path d="M 27.50 203.00 L 26.50 197.00 L 24.50 194.00 L 24.50 189.00 L 22.50 185.00 L 22.50 177.00 L 21.50 176.00 L 21.50 168.00 L 20.50 167.00 L 20.50 154.00 L 21.50 153.00 L 22.50 135.00 L 24.50 130.00 L 24.50 125.00 L 27.50 117.00 L 27.50 114.00 L 33.50 99.00 L 46.50 75.00 L 60.50 57.00 L 76.00 42.50 L 93.00 30.50 L 110.00 21.50 L 130.00 14.50 L 148.00 11.50 L 149.00 10.50 L 164.00 10.50 L 165.00 9.50 L 190.00 10.50 L 220.00 18.50 L 230.00 22.50 L 236.50 27.00 L 233.00 31.50 L 227.00 34.50 L 223.00 34.50 L 203.00 26.50 L 199.00 26.50 L 194.00 24.50 L 188.00 24.50 L 187.00 23.50 L 159.00 22.50 L 158.00 23.50 L 144.00 24.50 L 139.00 26.50 L 135.00 26.50 L 128.00 29.50 L 125.00 29.50 L 120.00 32.50 L 115.00 33.50 L 113.00 35.50 L 109.00 36.50 L 92.00 46.50 L 82.00 54.50 L 62.50 75.00 L 51.50 92.00 L 49.50 98.00 L 47.50 100.00 L 47.50 102.00 L 40.50 117.00 L 35.50 138.00 L 35.50 143.00 L 34.50 144.00 L 34.50 175.00 L 35.50 176.00 L 35.50 181.00 L 38.50 191.00 L 38.50 195.00 L 40.50 199.00 L 40.50 204.00 L 38.00 205.50 L 31.00 205.50 Z"/>
<path d="M 63.50 200.00 L 63.50 95.00 L 65.00 93.50 L 83.00 94.50 L 84.50 93.00 L 85.00 74.50 L 106.00 75.50 L 119.00 78.50 L 136.00 84.50 L 153.00 94.50 L 167.00 108.50 L 170.00 108.50 L 182.00 96.50 L 194.00 88.50 L 204.00 83.50 L 211.00 81.50 L 212.50 82.00 L 212.50 85.00 L 208.50 92.00 L 203.00 97.50 L 193.00 102.50 L 178.50 116.00 L 174.50 124.00 L 174.50 134.00 L 166.00 143.50 L 163.50 143.00 L 163.50 124.00 L 162.50 121.00 L 157.50 114.00 L 146.00 103.50 L 140.00 99.50 L 123.00 91.50 L 104.00 86.50 L 97.00 86.50 L 95.50 88.00 L 95.50 191.00 L 90.00 194.50 L 84.50 195.00 L 84.50 107.00 L 83.00 105.50 L 76.00 105.50 L 75.50 194.00 L 73.00 199.50 L 65.00 201.50 Z"/>
<path d="M 281.00 253.50 L 279.50 250.00 L 279.50 245.00 L 280.50 244.00 L 279.50 237.00 L 295.50 206.00 L 296.50 201.00 L 298.50 198.00 L 298.50 194.00 L 302.50 179.00 L 302.50 167.00 L 303.50 166.00 L 302.50 140.00 L 300.50 135.00 L 300.50 130.00 L 298.50 122.00 L 296.50 118.00 L 298.50 95.00 L 301.00 94.50 L 307.50 108.00 L 312.50 123.00 L 312.50 129.00 L 314.50 134.00 L 315.50 146.00 L 316.50 147.00 L 315.50 179.00 L 312.50 191.00 L 312.50 196.00 L 305.50 217.00 L 303.50 219.00 L 303.50 221.00 L 298.50 231.00 L 290.50 244.00 Z"/>
<path d="M 64.50 252.00 L 63.50 250.00 L 63.50 230.00 L 70.00 229.50 L 71.00 228.50 L 74.00 228.50 L 75.50 230.00 L 75.50 240.00 L 79.00 241.50 L 102.00 242.50 L 108.00 244.50 L 114.00 244.50 L 118.00 246.50 L 123.00 246.50 L 130.00 249.50 L 133.00 249.50 L 136.00 251.50 L 139.50 251.00 L 139.50 249.00 L 133.00 244.50 L 116.00 236.50 L 109.00 235.50 L 105.00 233.50 L 84.50 231.00 L 84.50 229.00 L 86.00 227.50 L 109.00 223.50 L 123.00 227.50 L 140.00 235.50 L 154.00 245.50 L 161.00 252.50 L 163.00 252.50 L 163.50 202.00 L 170.00 197.50 L 173.00 197.50 L 174.50 200.00 L 175.00 252.50 L 177.00 252.50 L 185.00 244.50 L 205.00 231.50 L 207.00 231.50 L 217.00 226.50 L 220.00 226.50 L 223.00 224.50 L 241.00 221.50 L 241.50 144.00 L 243.50 137.00 L 251.00 129.50 L 252.50 130.00 L 252.50 144.00 L 253.50 145.00 L 253.50 179.00 L 252.50 180.00 L 252.50 212.00 L 253.50 213.00 L 253.50 222.00 L 252.50 223.00 L 252.50 231.00 L 233.00 233.50 L 225.00 236.50 L 222.00 236.50 L 219.00 238.50 L 216.00 238.50 L 214.00 240.50 L 212.00 240.50 L 201.00 246.50 L 196.50 250.00 L 196.50 252.00 L 199.00 252.50 L 214.00 246.50 L 219.00 246.50 L 223.00 244.50 L 229.00 244.50 L 234.00 242.50 L 258.00 241.50 L 261.00 240.50 L 262.50 239.00 L 262.50 114.00 L 269.00 105.50 L 272.50 106.00 L 273.50 108.00 L 273.50 251.00 L 272.00 252.50 L 249.00 252.50 L 248.00 253.50 L 237.00 253.50 L 226.00 256.50 L 221.00 256.50 L 211.00 260.50 L 199.00 263.50 L 175.00 277.50 L 165.00 278.50 L 136.00 262.50 L 127.00 260.50 L 117.00 256.50 L 113.00 256.50 L 102.00 253.50 Z"/>
<path d="M 57.00 253.50 L 55.00 253.50 L 46.50 243.00 L 38.50 230.00 L 39.00 226.50 L 50.00 227.50 L 53.00 228.50 L 55.50 231.00 L 57.50 235.00 Z"/>
<path d="M 276.50 261.00 L 264.00 273.50 L 242.00 289.50 L 224.00 298.50 L 207.00 304.50 L 203.00 304.50 L 194.00 307.50 L 180.00 308.50 L 179.00 309.50 L 158.00 309.50 L 157.00 308.50 L 149.00 308.50 L 134.00 304.50 L 130.00 304.50 L 116.00 299.50 L 103.00 293.50 L 101.00 291.50 L 99.00 291.50 L 76.00 275.50 L 63.50 264.00 L 61.50 259.00 L 77.00 258.50 L 92.00 271.50 L 118.00 286.50 L 129.00 290.50 L 132.00 290.50 L 135.00 292.50 L 139.00 292.50 L 143.00 294.50 L 154.00 295.50 L 155.00 296.50 L 182.00 296.50 L 183.00 295.50 L 190.00 295.50 L 199.00 292.50 L 203.00 292.50 L 206.00 290.50 L 209.00 290.50 L 224.00 284.50 L 226.00 282.50 L 237.00 277.50 L 262.00 258.50 L 276.00 258.50 Z"/>
</g></svg>